<svg xmlns="http://www.w3.org/2000/svg" width="30" height="30" viewBox="0 0 30 30">
  <g id="ico_pinterest" transform="translate(0.5 0.5)">
    <circle id="Ellipse_6" data-name="Ellipse 6" cx="14.5" cy="14.5" r="14.5" fill="none" stroke="rgba(255,255,255,0.62)" stroke-width="1"/>
    <g id="Group_19" data-name="Group 19" transform="translate(7.717 7.717)">
      <path id="Path_76" data-name="Path 76" d="M340.223,333.879a6.344,6.344,0,0,0-2.547,12.154,5.584,5.584,0,0,1,.11-1.457c.123-.515.816-3.457.816-3.457a2.439,2.439,0,0,1-.2-1c0-.94.544-1.642,1.223-1.642a.85.85,0,0,1,.856.952,13.629,13.629,0,0,1-.561,2.251.982.982,0,0,0,1,1.222c1.2,0,2.012-1.544,2.012-3.372a2.375,2.375,0,0,0-2.64-2.432,3,3,0,0,0-3.123,3.039,1.833,1.833,0,0,0,.418,1.244.308.308,0,0,1,.091.354c-.03.117-.1.4-.129.509a.219.219,0,0,1-.318.159,2.443,2.443,0,0,1-1.3-2.424,4.2,4.2,0,0,1,4.534-3.963,3.792,3.792,0,0,1,4.016,3.635c0,2.488-1.383,4.347-3.423,4.347a1.821,1.821,0,0,1-1.55-.791s-.368,1.462-.446,1.744a5.318,5.318,0,0,1-.638,1.359,6.344,6.344,0,1,0,1.8-12.428Z" transform="translate(-333.879 -333.879)" fill="#fff"/>
    </g>
  </g>
</svg>
