<svg xmlns="http://www.w3.org/2000/svg" width="30" height="30" viewBox="0 0 30 30">
  <g id="ico_twitter" transform="translate(0.5 0.5)">
    <circle id="Ellipse_1" data-name="Ellipse 1" cx="14.5" cy="14.5" r="14.5" fill="none" stroke="rgba(255,255,255,0.62)" stroke-width="1"/>
    <path id="Path_65" data-name="Path 65" d="M130.924,336.887a4.954,4.954,0,0,1-1.421.39,2.48,2.48,0,0,0,1.088-1.369,4.937,4.937,0,0,1-1.571.6,2.477,2.477,0,0,0-4.217,2.257,7.024,7.024,0,0,1-5.1-2.585,2.476,2.476,0,0,0,.766,3.3,2.461,2.461,0,0,1-1.12-.309v.031a2.475,2.475,0,0,0,1.985,2.426,2.464,2.464,0,0,1-1.117.043,2.475,2.475,0,0,0,2.311,1.718,4.961,4.961,0,0,1-3.072,1.059,5.083,5.083,0,0,1-.591-.034,7.037,7.037,0,0,0,10.833-5.928c0-.107,0-.214-.007-.32A5.01,5.01,0,0,0,130.924,336.887Z" transform="translate(-110.377 -326.566)" fill="#fff"/>
  </g>
</svg>
