<svg xmlns="http://www.w3.org/2000/svg" width="44" height="44" viewBox="0 0 44 44">
  <g id="Left_arrow_copy" data-name="Left arrow copy" transform="translate(-1158 -2636)">
    <g id="Ellipse_1" data-name="Ellipse 1" transform="translate(1158 2636)" fill="#fff" stroke="#e1e1e1" stroke-width="1">
      <circle cx="22" cy="22" r="22" stroke="none"/>
      <circle cx="22" cy="22" r="21.5" fill="none"/>
    </g>
    <path id="Forma_1" data-name="Forma 1" d="M1170.143,2657.313H1187.1l-5.1-5.29a1.217,1.217,0,0,1,0-1.677,1.113,1.113,0,0,1,1.616,0l7.047,7.314a1.217,1.217,0,0,1,0,1.677l-7.047,7.315a1.113,1.113,0,0,1-1.616,0,1.218,1.218,0,0,1,0-1.677l5.1-5.29h-16.957a1.187,1.187,0,0,1,0-2.372Z" fill="#3f3f3f"/>
  </g>
</svg>
