<svg xmlns="http://www.w3.org/2000/svg" width="33" height="33" viewBox="0 0 33 33">
  <g id="Group_2954" data-name="Group 2954" transform="translate(-877 -5450)">
    <g id="Group_18" data-name="Group 18" transform="translate(876.801 5450)">
      <g id="Ellipse_1" data-name="Ellipse 1" transform="translate(0.199)" fill="none" stroke="#402e2c" stroke-width="2">
        <circle cx="16.5" cy="16.5" r="16.5" stroke="none"/>
        <circle cx="16.5" cy="16.5" r="15.5" fill="none"/>
      </g>
    </g>
    <path id="Path_18921" data-name="Path 18921" d="M136.36,337.41a7.185,7.185,0,0,1-2.061.566,3.6,3.6,0,0,0,1.579-1.987,7.162,7.162,0,0,1-2.279.872,3.593,3.593,0,0,0-6.118,3.274,10.19,10.19,0,0,1-7.4-3.75,3.592,3.592,0,0,0,1.111,4.792,3.57,3.57,0,0,1-1.625-.449v.045a3.591,3.591,0,0,0,2.88,3.519,3.573,3.573,0,0,1-1.621.062,3.591,3.591,0,0,0,3.352,2.492,7.2,7.2,0,0,1-4.457,1.537,7.377,7.377,0,0,1-.857-.05,10.209,10.209,0,0,0,15.716-8.6c0-.155,0-.311-.01-.465A7.268,7.268,0,0,0,136.36,337.41Z" transform="translate(766.483 5123.191)" fill="#402e2c"/>
  </g>
</svg>
