<svg xmlns="http://www.w3.org/2000/svg" width="33" height="33" viewBox="0 0 33 33">
  <g id="Group_2953" data-name="Group 2953" transform="translate(-831 -5450)">
    <g id="Group_18" data-name="Group 18" transform="translate(831 5450)">
      <g id="Ellipse_1" data-name="Ellipse 1" fill="none" stroke="#402e2c" stroke-width="2">
        <circle cx="16.5" cy="16.5" r="16.5" stroke="none"/>
        <circle cx="16.5" cy="16.5" r="15.5" fill="none"/>
      </g>
    </g>
    <path id="Path_76" data-name="Path 76" d="M342.653,333.879a8.774,8.774,0,0,0-3.522,16.81,7.722,7.722,0,0,1,.152-2.015c.17-.712,1.129-4.781,1.129-4.781a3.372,3.372,0,0,1-.28-1.388c0-1.3.753-2.271,1.692-2.271a1.175,1.175,0,0,1,1.184,1.317,18.85,18.85,0,0,1-.776,3.114,1.358,1.358,0,0,0,1.385,1.69c1.663,0,2.782-2.135,2.782-4.664,0-1.923-1.3-3.363-3.651-3.363a4.156,4.156,0,0,0-4.319,4.2,2.535,2.535,0,0,0,.578,1.72.426.426,0,0,1,.126.489c-.042.162-.138.55-.178.7a.3.3,0,0,1-.44.219,3.379,3.379,0,0,1-1.8-3.352c0-2.491,2.1-5.481,6.271-5.481a5.244,5.244,0,0,1,5.554,5.027c0,3.441-1.913,6.012-4.734,6.012a2.518,2.518,0,0,1-2.143-1.093s-.509,2.021-.617,2.411a7.355,7.355,0,0,1-.883,1.88,8.774,8.774,0,1,0,2.486-17.188Z" transform="translate(505.242 5123.139)" fill="#402e2c"/>
  </g>
</svg>
